<?xml version="1.0" encoding="UTF-8"?>
<svg data-name="Layer 2" xmlns="http://www.w3.org/2000/svg" viewBox="0 0 720 726">
  <defs>
    <style>
      .cls-1 {
        fill: none;
      }
      .cls-2 {
        fill: #255553;
      }
    </style>
  </defs>
  <g>
    <g>
      <path class="cls-1" d="M720,0v726H0V0h720ZM358.02,489.01c1.53-.38,1.6.24,2.42,1.06,6.16,6.15,11.96,14.49,18.05,20.95,65.46,69.38,149.58,124.6,231.84,172.16,17.27,9.98,60.5,36.7,78.28,38.72,46.07,5.23,25.42-63.28,19.11-87.11-24.32-91.87-70.76-189.9-112.86-275.14-48.5-98.21-102.67-198.94-165.04-288.96-17.56-25.34-51.13-84.75-88.14-62.5-22.46,13.5-62.9,78.57-78.1,102.9-58.38,93.5-113.37,197.8-160.44,297.56-35.13,74.46-75.83,164.42-94.65,244.35-6.48,27.53-19.34,76.03,26.75,69.75,24.07-3.28,74.48-33.88,96.68-47.32,73-44.2,154.23-105.26,211.6-168.4,5.02-5.53,10.68-11.83,14.5-18.01Z"/>
      <path class="cls-2" d="M358.02,489.01c-3.82,6.17-9.48,12.48-14.5,18.01-57.37,63.14-138.6,124.2-211.6,168.4-22.2,13.44-72.6,44.05-96.68,47.32-46.09,6.27-33.24-42.22-26.75-69.75,18.82-79.92,59.52-169.89,94.65-244.35,47.07-99.76,102.07-204.06,160.44-297.56,15.19-24.34,55.63-89.4,78.1-102.9,37.01-22.25,70.58,37.16,88.14,62.5,62.37,90.02,116.54,190.74,165.04,288.96,42.1,85.25,88.54,183.27,112.86,275.14,6.31,23.82,26.96,92.33-19.11,87.11-17.78-2.02-61.01-28.74-78.28-38.72-82.26-47.56-166.39-102.78-231.84-172.16-6.09-6.46-11.89-14.8-18.05-20.95-.82-.82-.89-1.43-2.42-1.06ZM375,45v417.5c0,.35-1.26,1.02-.57,2.45,60.04,72.49,137.7,126.98,217.65,175.47,28.47,17.26,59.75,35.98,89.7,50.3,2.91,1.39,7.25,3.86,10.23,3.77-10.11-67.04-36.37-132.11-62.84-194.16-23-53.92-49.03-108.14-75.63-160.37-52.15-102.39-109.25-203.23-178.55-294.95Z"/>
      <path class="cls-1" d="M375,45c69.3,91.72,126.39,192.57,178.55,294.95,26.6,52.23,52.64,106.44,75.63,160.37,26.46,62.06,52.72,127.13,62.84,194.16-2.98.09-7.32-2.38-10.23-3.77-29.96-14.31-61.24-33.03-89.7-50.3-79.95-48.49-157.61-102.98-217.65-175.47-.69-1.43.57-2.1.57-2.45V45Z"/>
    </g>
  </g>
</svg>