<?xml version="1.0" encoding="UTF-8"?>
<svg id="Layer_1" data-name="Layer 1" xmlns="http://www.w3.org/2000/svg" viewBox="0 0 1182 394">
  <defs>
    <style>
      .cls-1 {
        fill: none;
      }
      .cls-2 {
        fill: #255553;
      }
      @media (prefers-color-scheme: dark) {
        .cls-2 {
          fill: #86b6b0;
        }
      }
    </style>
  </defs>
  <polygon class="cls-2" points="517.61 0 517.62 162 636.5 0 720.42 0 585.87 185.49 732.41 391 648.99 391 517.61 208 517.61 391 450.67 391 450.67 0 517.61 0"/>
  <path class="cls-2" d="M1.08,246c.51-7.08,2.57-18.96,4.29-26.2,13.69-57.44,72.08-103.42,131.58-100.8v60c-31.33-2.04-63.23,23.11-71.88,52.56-.72,2.45-3.05,12.06-3.05,13.94v145.5H1.08c2.53-47.28-3.39-98.13,0-145Z"/>
  <path class="cls-2" d="M415.7,273h-207.81c11,47.24,64.89,71.17,107.92,48.52,3.05-1.61,12.64-9.52,13.47-9.52h74.43c-38.19,84.09-148.52,106.08-216.33,42.03-60.58-57.23-55.91-157.4,10.6-207.44,93.46-70.32,226.87-.19,218.76,116.96-.22,3.17-1.49,6.21-1.04,9.46ZM350.76,227c-10.52-30.23-41.51-50.34-73.48-49.05-28.49,1.15-57.69,21.7-66.39,49.05h139.87Z"/>
  <path class="cls-2" d="M1137.41,156.62c85.57,80.09,30.75,228.18-85.75,234.42-139.73,7.48-199.58-173.46-83.38-250.45,53.75-35.62,122.82-27.31,169.13,16.03ZM1034.93,178.29c-50.21,4.86-81.46,59.67-61.59,106.06,19.35,45.19,78.4,61.15,116.76,29.16,58.37-48.69,19.37-142.43-55.17-135.22Z"/>
  <path class="cls-2" d="M898.26,119v60c-33.14-2.07-65.61,24.35-73.44,55.99-.73,2.97-2.49,10.96-2.49,13.51v142.5h-59.95v-149.49c5.12-68.56,67.07-124.9,135.88-122.51Z"/>
</svg>